<?xml version="1.0" encoding="iso-8859-1"?>
<!-- Generator: Adobe Illustrator 18.1.1, SVG Export Plug-In . SVG Version: 6.00 Build 0)  -->
<svg version="1.1" id="Capa_1" xmlns="http://www.w3.org/2000/svg" xmlns:xlink="http://www.w3.org/1999/xlink" x="0px" y="0px"
	 viewBox="0 0 532.745 532.745" style="enable-background:new 0 0 532.745 532.745;" xml:space="preserve">
<g>
	<g>
		<path d="M435.882,0H96.863v169.51l96.863,96.863l-96.863,96.863v169.51h339.02v-169.51l-96.863-96.863l96.863-96.863V0z
			 M411.667,159.485l-89.768,89.768l-17.12,17.12l17.12,17.12l89.768,89.768v135.269H121.078V373.261l89.768-89.768l17.12-17.12
			l-17.12-17.12l-89.768-89.768V24.216h290.588V159.485z"/>
		<polygon points="387.451,145.294 387.451,96.863 145.294,96.863 145.294,145.294 266.373,266.373 		"/>
		<polygon points="145.294,484.314 387.451,484.314 387.451,460.098 266.373,411.667 145.294,460.098 		"/>
	</g>
</g>
<g>
</g>
<g>
</g>
<g>
</g>
<g>
</g>
<g>
</g>
<g>
</g>
<g>
</g>
<g>
</g>
<g>
</g>
<g>
</g>
<g>
</g>
<g>
</g>
<g>
</g>
<g>
</g>
<g>
</g>
</svg>
