<?xml version="1.0" encoding="iso-8859-1"?>
<!-- Generator: Adobe Illustrator 18.0.0, SVG Export Plug-In . SVG Version: 6.00 Build 0)  -->
<!DOCTYPE svg PUBLIC "-//W3C//DTD SVG 1.1//EN" "http://www.w3.org/Graphics/SVG/1.1/DTD/svg11.dtd">
<svg version="1.1" id="Capa_1" xmlns="http://www.w3.org/2000/svg" xmlns:xlink="http://www.w3.org/1999/xlink" x="0px" y="0px"
	 viewBox="0 0 505 505" style="enable-background:new 0 0 505 505;" xml:space="preserve">
<g>
	<path d="M503.878,384.611l-89.101-176.972V81.334c0-16.818-13.732-30.5-30.611-30.5h-4.111V24c0-5.799-4.701-10.5-10.5-10.5h-64
		c-5.799,0-10.5,4.701-10.5,10.5v26.834h-4.222c-16.818,0-30.5,13.682-30.5,30.5v118.3H192V152.5h34.167
		c16.818,0,30.5-13.682,30.5-30.5V92c0-16.818-13.682-30.5-30.5-30.5H103.5C86.682,61.5,73,75.182,73,92v30
		c0,16.818,13.682,30.5,30.5,30.5h34.167v47.133h-36.834c-3.965,0-7.591,2.233-9.376,5.773l-90.333,179.2
		C0.385,386.073,0,387.691,0,389.333V461c0,16.818,13.682,30.5,30.5,30.5h444c16.818,0,30.5-13.682,30.5-30.5v-71.667
		C505,387.693,504.616,386.076,503.878,384.611z M316.056,34.5h43v85.667h-43V34.5z M281.333,81.334c0-5.238,4.262-9.5,9.5-9.5
		h4.222v58.833c0,5.799,4.701,10.5,10.5,10.5h64c5.799,0,10.5-4.701,10.5-10.5V71.834h4.111c5.299,0,9.611,4.262,9.611,9.5v118.3
		H281.333V81.334z M94,122V92c0-5.238,4.262-9.5,9.5-9.5h122.667c5.238,0,9.5,4.262,9.5,9.5v30c0,5.238-4.262,9.5-9.5,9.5H103.5
		C98.262,131.5,94,127.238,94,122z M158.667,152.5H171v47.133h-12.333V152.5z M107.299,220.633h290.509l79.649,158.2H27.552
		L107.299,220.633z M474.5,470.5h-444c-5.238,0-9.5-4.262-9.5-9.5v-61.167h463V461C484,466.238,479.738,470.5,474.5,470.5z"/>
	<path d="M234.886,271.833h25.974c5.799,0,10.5-4.701,10.5-10.5s-4.701-10.5-10.5-10.5h-25.974c-5.799,0-10.5,4.701-10.5,10.5
		S229.087,271.833,234.886,271.833z"/>
	<path d="M302.182,271.833h25.974c5.799,0,10.5-4.701,10.5-10.5s-4.701-10.5-10.5-10.5h-25.974c-5.799,0-10.5,4.701-10.5,10.5
		S296.383,271.833,302.182,271.833z"/>
	<path d="M369.477,271.833h25.975c5.799,0,10.5-4.701,10.5-10.5s-4.701-10.5-10.5-10.5h-25.975c-5.799,0-10.5,4.701-10.5,10.5
		S363.678,271.833,369.477,271.833z"/>
	<path d="M107.589,271.833h25.975c5.799,0,10.5-4.701,10.5-10.5s-4.701-10.5-10.5-10.5h-25.975c-5.799,0-10.5,4.701-10.5,10.5
		S101.79,271.833,107.589,271.833z"/>
	<path d="M76.589,337.98h25.975c5.799,0,10.5-4.701,10.5-10.5c0-5.799-4.701-10.5-10.5-10.5H76.589c-5.799,0-10.5,4.701-10.5,10.5
		C66.089,333.279,70.79,337.98,76.589,337.98z"/>
	<path d="M236.002,327.48c0,5.799,4.701,10.5,10.5,10.5h25.974c5.799,0,10.5-4.701,10.5-10.5c0-5.799-4.701-10.5-10.5-10.5h-25.974
		C240.704,316.98,236.002,321.682,236.002,327.48z"/>
	<path d="M310.665,327.48c0,5.799,4.701,10.5,10.5,10.5h25.974c5.799,0,10.5-4.701,10.5-10.5c0-5.799-4.701-10.5-10.5-10.5h-25.974
		C315.366,316.98,310.665,321.682,310.665,327.48z"/>
	<path d="M385.326,327.48c0,5.799,4.701,10.5,10.5,10.5H421.8c5.799,0,10.5-4.701,10.5-10.5c0-5.799-4.701-10.5-10.5-10.5h-25.974
		C390.027,316.98,385.326,321.682,385.326,327.48z"/>
</g>
<g>
</g>
<g>
</g>
<g>
</g>
<g>
</g>
<g>
</g>
<g>
</g>
<g>
</g>
<g>
</g>
<g>
</g>
<g>
</g>
<g>
</g>
<g>
</g>
<g>
</g>
<g>
</g>
<g>
</g>
</svg>
